<svg width="42" height="42" viewBox="0 0 42 42" fill="none" xmlns="http://www.w3.org/2000/svg">
<rect width="42" height="42" rx="4.5" fill="#017752"/>
<path d="M30.3333 17.4895V12.834H22.0767C22.0767 12.834 22.1171 21.7091 22.1737 23.7326C22.2303 25.7563 23.2371 27.756 25.0259 29.3374C26.815 30.9186 30.3329 31.5003 30.3329 31.5003V26.8035C30.3329 26.8035 28.5693 26.8429 27.5415 25.6745C26.5137 24.5061 26.269 23.3713 26.2216 22.1295C26.1742 20.8875 26.2216 17.4895 26.2216 17.4895H30.3333Z" fill="white"/>
<path d="M11.6667 17.3218V12.668H19.9206C19.9206 12.668 19.8801 21.5399 19.8236 23.5626C19.7671 25.5856 18.7606 27.5845 16.9722 29.1653C15.1838 30.746 11.6672 31.3274 11.6672 31.3274V26.6323C11.6672 26.6323 13.4302 26.6718 14.4576 25.5038C15.485 24.3358 15.7298 23.2014 15.7771 21.96C15.8244 20.7186 15.7771 17.3218 15.7771 17.3218H11.6667Z" fill="white"/>
</svg>
